# xmcd
#
# Track frame offsets:
#	150
#	16441
#	36990
#	49791
#	66285
#	79820
#	97044
#	117543
#	135952
#	147779
#	165247
#	177094
#
# Disc length: 2558 seconds
# Revision: 0
# Processed by: cddbd v1.5.2PL0 Copyright (c) Steve Scherf et al.
# Submitted via: dBpowerAMP V12.0
#
DISCID=9d09fc0c
DTITLE=Andy Layfield - Mad Time
DYEAR=2015
DGENRE=Blues
TTITLE0=Acoustic Addiction
TTITLE1=Tell Me Lady
TTITLE2=Kinda Hazy
TTITLE3=Mad Time
TTITLE4=Outback Show
TTITLE5=Fair Go
TTITLE6=You Love Me Too
TTITLE7=Spinning Top
TTITLE8=Hangover Blues
TTITLE9=Trance Like Beat
TTITLE10=Think I'm Dreamin'
TTITLE11=Sliding Doors
EXTD=
EXTT0=
EXTT1=
EXTT2=
EXTT3=
EXTT4=
EXTT5=
EXTT6=
EXTT7=
EXTT8=
EXTT9=
EXTT10=
EXTT11=
PLAYORDER=
